<?xml version="1.0" encoding="UTF-8"?>
<svg xmlns="http://www.w3.org/2000/svg" viewBox="0 0 200 200" preserveAspectRatio="xMidYMid meet">
  <defs>
    <!-- Gradient for peach colors -->
    <linearGradient id="peachGradient" x1="0%" y1="0%" x2="100%" y2="100%">
      <stop offset="0%" stop-color="#FFE5D4" />
      <stop offset="50%" stop-color="#FFCBA4" />
      <stop offset="100%" stop-color="#F9A97A" />
    </linearGradient>
    
    <!-- Pattern for Gujarat-inspired fabric -->
    <pattern id="gujaratPattern" patternUnits="userSpaceOnUse" width="40" height="40" patternTransform="rotate(45)">
      <rect width="40" height="40" fill="none"/>
      <circle cx="20" cy="20" r="5" fill="#FFCBA4" opacity="0.3"/>
      <path d="M0,20 L40,20 M20,0 L20,40" stroke="#F9A97A" stroke-width="0.5" stroke-dasharray="2,3" opacity="0.5"/>
      <circle cx="0" cy="0" r="2" fill="#F9A97A" opacity="0.4"/>
      <circle cx="40" cy="0" r="2" fill="#F9A97A" opacity="0.4"/>
      <circle cx="0" cy="40" r="2" fill="#F9A97A" opacity="0.4"/>
      <circle cx="40" cy="40" r="2" fill="#F9A97A" opacity="0.4"/>
    </pattern>
  </defs>
  
  <!-- Border pattern inspired by Gujarati textile work -->
  <rect x="10" y="10" width="180" height="180" fill="url(#gujaratPattern)" stroke="url(#peachGradient)" stroke-width="4" rx="20" ry="20"/>
  
  <!-- Central mirror work inspired element -->
  <circle cx="100" cy="100" r="60" fill="none" stroke="url(#peachGradient)" stroke-width="3"/>
  <circle cx="100" cy="100" r="50" fill="none" stroke="url(#peachGradient)" stroke-width="2" stroke-dasharray="3,2"/>
  <circle cx="100" cy="100" r="40" fill="none" stroke="url(#peachGradient)" stroke-width="1.5"/>
  
  <!-- Traditional Gujarat bandhani pattern -->
  <g id="bandhaniDots">
    <!-- Inner circle of dots -->
    <circle cx="100" cy="60" r="4" fill="url(#peachGradient)"/>
    <circle cx="115" cy="65" r="4" fill="url(#peachGradient)"/>
    <circle cx="125" cy="75" r="4" fill="url(#peachGradient)"/>
    <circle cx="135" cy="90" r="4" fill="url(#peachGradient)"/>
    <circle cx="135" cy="110" r="4" fill="url(#peachGradient)"/>
    <circle cx="125" cy="125" r="4" fill="url(#peachGradient)"/>
    <circle cx="115" cy="135" r="4" fill="url(#peachGradient)"/>
    <circle cx="100" cy="140" r="4" fill="url(#peachGradient)"/>
    <circle cx="85" cy="135" r="4" fill="url(#peachGradient)"/>
    <circle cx="75" cy="125" r="4" fill="url(#peachGradient)"/>
    <circle cx="65" cy="110" r="4" fill="url(#peachGradient)"/>
    <circle cx="65" cy="90" r="4" fill="url(#peachGradient)"/>
    <circle cx="75" cy="75" r="4" fill="url(#peachGradient)"/>
    <circle cx="85" cy="65" r="4" fill="url(#peachGradient)"/>
  </g>
  
  <!-- Decorative elements inspired by Gujarat embroidery -->
  <path d="M100,40 L105,50 L115,50 L107,57 L110,67 L100,62 L90,67 L93,57 L85,50 L95,50 Z" fill="url(#peachGradient)" opacity="0.7"/>
  <path d="M100,160 L105,150 L115,150 L107,143 L110,133 L100,138 L90,133 L93,143 L85,150 L95,150 Z" fill="url(#peachGradient)" opacity="0.7"/>
  
  <!-- Corner decorative elements -->
  <circle cx="30" cy="30" r="10" fill="none" stroke="url(#peachGradient)" stroke-width="1.5"/>
  <circle cx="30" cy="30" r="5" fill="url(#peachGradient)" opacity="0.6"/>
  
  <circle cx="170" cy="30" r="10" fill="none" stroke="url(#peachGradient)" stroke-width="1.5"/>
  <circle cx="170" cy="30" r="5" fill="url(#peachGradient)" opacity="0.6"/>
  
  <circle cx="30" cy="170" r="10" fill="none" stroke="url(#peachGradient)" stroke-width="1.5"/>
  <circle cx="30" cy="170" r="5" fill="url(#peachGradient)" opacity="0.6"/>
  
  <circle cx="170" cy="170" r="10" fill="none" stroke="url(#peachGradient)" stroke-width="1.5"/>
  <circle cx="170" cy="170" r="5" fill="url(#peachGradient)" opacity="0.6"/>
  
  <!-- Center mirror work dot -->
  <circle cx="100" cy="100" r="10" fill="url(#peachGradient)"/>
  <circle cx="100" cy="100" r="5" fill="#FFFFFF" opacity="0.7"/>
</svg>