<?xml version="1.0" encoding="UTF-8"?>
<svg xmlns="http://www.w3.org/2000/svg" viewBox="0 0 100 100" preserveAspectRatio="xMidYMid meet">
  <!-- Gujarat-inspired bandhani/tie-dye pattern -->
  <defs>
    <!-- Gradient for peach colors -->
    <linearGradient id="peachGradient" x1="0%" y1="0%" x2="100%" y2="100%">
      <stop offset="0%" stop-color="#FFE5D4" />
      <stop offset="50%" stop-color="#FFCBA4" />
      <stop offset="100%" stop-color="#F9A97A" />
    </linearGradient>
    
    <!-- Ripple pattern for bandhani effect -->
    <pattern id="bandhaniPattern" x="0" y="0" width="20" height="20" patternUnits="userSpaceOnUse">
      <circle cx="10" cy="10" r="5" fill="none" stroke="url(#peachGradient)" stroke-width="0.5" />
      <circle cx="10" cy="10" r="3" fill="none" stroke="url(#peachGradient)" stroke-width="0.5" />
      <circle cx="10" cy="10" r="1" fill="url(#peachGradient)" />
    </pattern>
  </defs>
  
  <!-- Background -->
  <rect x="0" y="0" width="100" height="100" fill="white" />
  
  <!-- Bandhani pattern background -->
  <rect x="0" y="0" width="100" height="100" fill="url(#bandhaniPattern)" opacity="0.3" />
  
  <!-- Main decorative elements -->
  <path d="M10,10 L90,10 L90,90 L10,90 Z" fill="none" stroke="url(#peachGradient)" stroke-width="2" />
  
  <!-- Inner decorative border -->
  <path d="M20,20 L80,20 L80,80 L20,80 Z" fill="none" stroke="url(#peachGradient)" stroke-width="1.5" stroke-dasharray="3,2" />
  
  <!-- Corner decorations -->
  <circle cx="10" cy="10" r="5" fill="url(#peachGradient)" />
  <circle cx="90" cy="10" r="5" fill="url(#peachGradient)" />
  <circle cx="10" cy="90" r="5" fill="url(#peachGradient)" />
  <circle cx="90" cy="90" r="5" fill="url(#peachGradient)" />
  
  <!-- Inner corner decorations -->
  <path d="M20,20 L30,30" stroke="url(#peachGradient)" stroke-width="1.5" />
  <path d="M80,20 L70,30" stroke="url(#peachGradient)" stroke-width="1.5" />
  <path d="M20,80 L30,70" stroke="url(#peachGradient)" stroke-width="1.5" />
  <path d="M80,80 L70,70" stroke="url(#peachGradient)" stroke-width="1.5" />
  
  <!-- Central element -->
  <circle cx="50" cy="50" r="15" fill="none" stroke="url(#peachGradient)" stroke-width="2" />
  <circle cx="50" cy="50" r="10" fill="none" stroke="url(#peachGradient)" stroke-width="1" />
  <circle cx="50" cy="50" r="5" fill="url(#peachGradient)" />
  
  <!-- Decorative dots in Gujarat bandhani style -->
  <circle cx="30" cy="30" r="3" fill="url(#peachGradient)" />
  <circle cx="30" cy="50" r="3" fill="url(#peachGradient)" />
  <circle cx="30" cy="70" r="3" fill="url(#peachGradient)" />
  
  <circle cx="50" cy="30" r="3" fill="url(#peachGradient)" />
  <circle cx="50" cy="70" r="3" fill="url(#peachGradient)" />
  
  <circle cx="70" cy="30" r="3" fill="url(#peachGradient)" />
  <circle cx="70" cy="50" r="3" fill="url(#peachGradient)" />
  <circle cx="70" cy="70" r="3" fill="url(#peachGradient)" />
</svg>