<?xml version="1.0" encoding="UTF-8"?>
<svg xmlns="http://www.w3.org/2000/svg" viewBox="0 0 100 100" preserveAspectRatio="xMidYMid meet">
  <defs>
    <!-- Gradient for peach colors -->
    <linearGradient id="peachGradient" x1="0%" y1="0%" x2="100%" y2="100%">
      <stop offset="0%" stop-color="#FFE5D4" />
      <stop offset="50%" stop-color="#FFCBA4" />
      <stop offset="100%" stop-color="#F9A97A" />
    </linearGradient>
    
    <!-- Background gradient -->
    <linearGradient id="bgGradient" x1="0%" y1="0%" x2="100%" y2="100%">
      <stop offset="0%" stop-color="#FFFFFF" />
      <stop offset="100%" stop-color="#FCF9F7" />
    </linearGradient>
  </defs>
  
  <!-- Background -->
  <circle cx="50" cy="50" r="45" fill="url(#bgGradient)" stroke="none" class="background-element" />
  
  <!-- Gujarat-inspired pattern with clear separation between peach and background elements -->
  
  <!-- Peach elements that will glow in dark mode -->
  <g class="peach-elements">
    <!-- Central mandala-like pattern - peach parts -->
    <path d="M50,20 L53,35 L68,35 L56,45 L60,60 L50,50 L40,60 L44,45 L32,35 L47,35 Z" 
          fill="none" stroke="url(#peachGradient)" stroke-width="1.5" />
    
    <!-- Circular peach decorations -->
    <circle cx="50" cy="50" r="25" fill="none" stroke="url(#peachGradient)" stroke-width="1.5" />
    <circle cx="50" cy="50" r="20" fill="none" stroke="url(#peachGradient)" stroke-width="1" />
    <circle cx="50" cy="50" r="15" fill="none" stroke="url(#peachGradient)" stroke-width="0.8" />
    
    <!-- Diagonal lines - peach -->
    <line x1="30" y1="30" x2="70" y2="70" stroke="url(#peachGradient)" stroke-width="1" />
    <line x1="70" y1="30" x2="30" y2="70" stroke="url(#peachGradient)" stroke-width="1" />
    
    <!-- Small peach circles -->
    <circle cx="30" cy="30" r="3" fill="url(#peachGradient)" />
    <circle cx="70" cy="30" r="3" fill="url(#peachGradient)" />
    <circle cx="30" cy="70" r="3" fill="url(#peachGradient)" />
    <circle cx="70" cy="70" r="3" fill="url(#peachGradient)" />
    <circle cx="50" cy="20" r="3" fill="url(#peachGradient)" />
    <circle cx="50" cy="80" r="3" fill="url(#peachGradient)" />
    <circle cx="20" cy="50" r="3" fill="url(#peachGradient)" />
    <circle cx="80" cy="50" r="3" fill="url(#peachGradient)" />
  </g>
  
  <!-- Background elements that will turn dark in dark mode -->
  <g class="background-elements">
    <!-- Outer circle -->
    <circle cx="50" cy="50" r="45" fill="none" stroke="#FFFFFF" stroke-width="2" class="background-stroke" />
    
    <!-- Background small dots -->
    <circle cx="40" cy="25" r="1" fill="#FFFFFF" class="background-fill" />
    <circle cx="60" cy="25" r="1" fill="#FFFFFF" class="background-fill" />
    <circle cx="40" cy="75" r="1" fill="#FFFFFF" class="background-fill" />
    <circle cx="60" cy="75" r="1" fill="#FFFFFF" class="background-fill" />
    <circle cx="25" cy="40" r="1" fill="#FFFFFF" class="background-fill" />
    <circle cx="25" cy="60" r="1" fill="#FFFFFF" class="background-fill" />
    <circle cx="75" cy="40" r="1" fill="#FFFFFF" class="background-fill" />
    <circle cx="75" cy="60" r="1" fill="#FFFFFF" class="background-fill" />
  </g>
  
  <!-- Small center circle - peach -->
  <circle cx="50" cy="50" r="5" fill="url(#peachGradient)" class="peach-elements" />
</svg>